<svg width="116" height="152" viewBox="0 0 116 152" fill="none" xmlns="http://www.w3.org/2000/svg">
<mask id="path-1-inside-1_13_140" fill="white">
<path fill-rule="evenodd" clip-rule="evenodd" d="M30.2602 1.10895C28.1718 1.67182 27.1215 2.24623 25.5767 3.67102C24.4922 4.67135 24.2802 5.04641 24.2802 5.9657C24.2802 6.57028 25.8206 12.4395 27.7036 19.0085C29.5862 25.5776 31.0009 30.9942 30.8475 31.0454C30.6938 31.0966 29.9578 31.5261 29.2117 31.9993C27.5838 33.0322 25.9518 35.1704 25.2862 37.1421C24.6063 39.157 24.8262 42.6481 25.7544 44.5665C26.4254 45.9532 28.2031 48.0006 29.4972 48.8767C30.1198 49.2985 29.899 49.672 18.0786 68.178C11.4492 78.557 5.47522 88.2332 4.80303 89.6808C3.29046 92.938 1.99988 96.8447 1.31173 100.249C0.512725 104.201 0.591059 112.766 1.46307 116.801C4.37766 130.29 13.1569 141.739 25.0192 147.523C28.8227 149.378 31.5268 150.314 35.8085 151.259C38.8754 151.935 39.1393 151.943 57.9784 151.943C76.8174 151.943 77.0813 151.935 80.1482 151.259C84.4299 150.314 87.134 149.378 90.9375 147.523C99.4876 143.354 106.184 136.599 110.597 127.689C114.122 120.574 115.525 114.225 115.24 106.689C114.991 100.119 113.719 95.0007 110.904 89.2374C110.109 87.6106 104.142 77.9607 97.6416 67.7932C86.0512 49.662 85.836 49.2985 86.4595 48.8767C86.8089 48.6401 87.6383 47.8953 88.3028 47.2212C91.6655 43.8096 92.0335 38.1862 89.15 34.2804C88.267 33.0845 86.1541 31.3938 85.1056 31.0442C84.9501 30.9925 86.3649 25.5933 88.2496 19.0464C90.1343 12.4995 91.6765 6.62618 91.6765 5.99469C91.6765 4.98962 91.4902 4.67875 90.1843 3.5036C88.103 1.6313 85.9593 0.851912 82.8085 0.822038C79.8874 0.79453 77.9794 1.37811 75.9725 2.91293C72.9019 5.26115 72.449 5.49422 70.7097 5.61993C68.7677 5.76072 67.6819 5.32799 65.848 3.68285C65.2178 3.11731 63.8211 2.23706 62.7443 1.72654C60.9692 0.88504 60.5246 0.799263 57.9784 0.808728C54.67 0.820855 52.9213 1.45146 50.3224 3.56956C48.1163 5.36763 47.4311 5.67494 45.6224 5.67702C43.8772 5.67909 42.8009 5.2221 41.1855 3.79318C38.0436 1.014 34.1573 0.0592141 30.2602 1.10895ZM36.3581 7.59162C36.9498 8.01252 38.1624 8.89099 39.0524 9.54319C41.228 11.1378 43.2535 11.6971 46.2754 11.5374C49.1246 11.3871 51.109 10.5749 53.5444 8.56208C56.4123 6.19197 59.198 5.96866 61.6003 7.91609C65.1014 10.7538 67.1105 11.5944 70.3934 11.5944C73.7358 11.5944 75.05 11.0369 79.2495 7.83771C80.7302 6.70989 82.643 6.33425 84.3306 6.84033C85.2123 7.10446 85.4618 7.31329 85.3498 7.69159C85.2679 7.96726 83.8582 12.9181 82.2173 18.6932C80.5765 24.4684 79.1644 29.4263 79.0799 29.7111C78.935 30.1977 77.6716 30.2288 57.9585 30.2288C46.4264 30.2288 36.9909 30.1658 36.9909 30.0886C36.9909 30.0114 35.5274 24.8647 33.7391 18.6518C31.9504 12.4389 30.5253 7.31743 30.572 7.2704C31.5129 6.32922 34.8431 6.51408 36.3581 7.59162ZM82.9809 36.6194C84.3007 37.2462 85.1733 38.7012 85.1733 40.2747C85.1733 41.8616 84.4905 43.0196 83.0905 43.807C82.0796 44.3755 81.5259 44.4263 76.353 44.4263C72.6128 44.4263 70.4561 44.5452 69.9418 44.7798C69.0946 45.1661 68.3243 46.4063 68.3243 47.3842C68.3243 48.2428 69.0813 49.6271 69.7174 49.9314C70.008 50.0705 72.3521 50.253 74.9264 50.337L79.6072 50.4899L91.8757 69.7158C98.6233 80.29 104.649 89.9399 105.266 91.16C106.698 93.9912 108.012 97.7205 108.706 100.921C109.462 104.408 109.471 111.9 108.723 115.414C107.082 123.129 103.512 129.68 97.915 135.241C93.4007 139.728 88.8884 142.498 83.1041 144.333C77.8522 145.999 77.4248 146.028 57.8306 146.028C41.2936 146.028 39.5786 145.982 37.1387 145.469C32.1556 144.424 27.5132 142.5 23.2551 139.716C20.5238 137.93 15.2932 132.706 13.4082 129.88C6.49296 119.515 4.75514 107.8 8.46962 96.5873C9.01677 94.9357 9.99283 92.5398 10.6384 91.2632C11.2843 89.9863 17.3334 80.29 24.081 69.7158L36.3495 50.4899L41.0303 50.337C43.6046 50.253 45.9487 50.0705 46.2393 49.9314C46.8666 49.6315 47.6324 48.2467 47.6324 47.4128C47.6324 46.4128 46.967 45.2906 46.1116 44.8478C45.4897 44.526 43.957 44.4263 39.6324 44.4263C34.4305 44.4263 33.8777 44.3758 32.8662 43.807C32.2605 43.4662 31.544 42.8134 31.2741 42.3561C30.6022 41.2183 30.6492 39.2413 31.3764 38.064C32.6108 36.0654 31.3158 36.1586 57.9337 36.1512C79.4133 36.145 82.087 36.195 82.9809 36.6194ZM56.5329 44.8392C53.9703 46.2605 55.0425 50.342 57.9784 50.342C59.4761 50.342 60.9343 48.8971 60.9343 47.4128C60.9343 45.1921 58.4818 43.7582 56.5329 44.8392ZM56.5329 71.4597C55.4696 72.0492 55.0445 73.0714 55.0327 75.0671L55.0224 76.8687L53.7661 77.2399C50.3895 78.2373 47.9245 80.3888 46.351 83.7122C45.4855 85.5401 45.4155 85.9205 45.4155 88.7937C45.4155 91.5998 45.4956 92.063 46.2467 93.5934C47.2913 95.7219 49.2804 97.4906 52.5364 99.1864L55.0153 100.477L55.0188 108.981L55.0224 117.485H54.2937C53.2127 117.485 50.9251 116.654 49.3277 115.681C47.4495 114.537 46.0974 114.538 44.9493 115.687C43.7962 116.841 43.7453 118.543 44.832 119.63C46.5228 121.322 51.6044 123.4 54.0499 123.4H55.0224V125.466C55.0224 127.327 55.1072 127.627 55.879 128.491C56.5879 129.285 56.9497 129.451 57.9784 129.451C59.007 129.451 59.3688 129.285 60.0777 128.491C60.8584 127.617 60.9343 127.339 60.9343 125.357V123.181L62.2885 122.802C65.1986 121.987 68.749 118.95 70.2504 115.993C72.1505 112.25 72.4215 107.379 70.9128 104.1C69.4588 100.939 66.5202 98.4809 62.3384 96.9257L60.9343 96.4036V89.7888C60.9343 85.6502 61.0431 83.1739 61.2249 83.1739C61.3848 83.1739 62.4957 83.6592 63.6937 84.2523C66.1229 85.4549 66.966 85.4473 68.2019 84.2106C69.1043 83.3076 69.172 81.5095 68.3432 80.455C67.6391 79.5594 64.9095 78.0905 62.634 77.383L60.9343 76.8545V75.1475C60.9343 73.0844 60.4983 72.0297 59.4135 71.4683C58.4093 70.9489 57.459 70.9459 56.5329 71.4597ZM55.0224 88.5083V93.8428L54.3573 93.4887C51.9922 92.229 51.1796 91.0355 51.1796 88.8224C51.1796 87.2598 51.5391 86.1616 52.4459 84.9551C52.994 84.2254 54.3783 83.1795 54.8007 83.1759C54.9225 83.1748 55.0224 85.5744 55.0224 88.5083ZM63.7248 104.237C66.1776 106.26 66.6884 109.812 64.9967 113.083C64.1197 114.778 62.0159 116.893 61.2069 116.893C61.0481 116.893 60.9343 113.937 60.9343 109.81V102.726L61.7653 103.016C62.2222 103.176 63.104 103.725 63.7248 104.237Z"/>
</mask>
<path fill-rule="evenodd" clip-rule="evenodd" d="M30.2602 1.10895C28.1718 1.67182 27.1215 2.24623 25.5767 3.67102C24.4922 4.67135 24.2802 5.04641 24.2802 5.9657C24.2802 6.57028 25.8206 12.4395 27.7036 19.0085C29.5862 25.5776 31.0009 30.9942 30.8475 31.0454C30.6938 31.0966 29.9578 31.5261 29.2117 31.9993C27.5838 33.0322 25.9518 35.1704 25.2862 37.1421C24.6063 39.157 24.8262 42.6481 25.7544 44.5665C26.4254 45.9532 28.2031 48.0006 29.4972 48.8767C30.1198 49.2985 29.899 49.672 18.0786 68.178C11.4492 78.557 5.47522 88.2332 4.80303 89.6808C3.29046 92.938 1.99988 96.8447 1.31173 100.249C0.512725 104.201 0.591059 112.766 1.46307 116.801C4.37766 130.29 13.1569 141.739 25.0192 147.523C28.8227 149.378 31.5268 150.314 35.8085 151.259C38.8754 151.935 39.1393 151.943 57.9784 151.943C76.8174 151.943 77.0813 151.935 80.1482 151.259C84.4299 150.314 87.134 149.378 90.9375 147.523C99.4876 143.354 106.184 136.599 110.597 127.689C114.122 120.574 115.525 114.225 115.24 106.689C114.991 100.119 113.719 95.0007 110.904 89.2374C110.109 87.6106 104.142 77.9607 97.6416 67.7932C86.0512 49.662 85.836 49.2985 86.4595 48.8767C86.8089 48.6401 87.6383 47.8953 88.3028 47.2212C91.6655 43.8096 92.0335 38.1862 89.15 34.2804C88.267 33.0845 86.1541 31.3938 85.1056 31.0442C84.9501 30.9925 86.3649 25.5933 88.2496 19.0464C90.1343 12.4995 91.6765 6.62618 91.6765 5.99469C91.6765 4.98962 91.4902 4.67875 90.1843 3.5036C88.103 1.6313 85.9593 0.851912 82.8085 0.822038C79.8874 0.79453 77.9794 1.37811 75.9725 2.91293C72.9019 5.26115 72.449 5.49422 70.7097 5.61993C68.7677 5.76072 67.6819 5.32799 65.848 3.68285C65.2178 3.11731 63.8211 2.23706 62.7443 1.72654C60.9692 0.88504 60.5246 0.799263 57.9784 0.808728C54.67 0.820855 52.9213 1.45146 50.3224 3.56956C48.1163 5.36763 47.4311 5.67494 45.6224 5.67702C43.8772 5.67909 42.8009 5.2221 41.1855 3.79318C38.0436 1.014 34.1573 0.0592141 30.2602 1.10895ZM36.3581 7.59162C36.9498 8.01252 38.1624 8.89099 39.0524 9.54319C41.228 11.1378 43.2535 11.6971 46.2754 11.5374C49.1246 11.3871 51.109 10.5749 53.5444 8.56208C56.4123 6.19197 59.198 5.96866 61.6003 7.91609C65.1014 10.7538 67.1105 11.5944 70.3934 11.5944C73.7358 11.5944 75.05 11.0369 79.2495 7.83771C80.7302 6.70989 82.643 6.33425 84.3306 6.84033C85.2123 7.10446 85.4618 7.31329 85.3498 7.69159C85.2679 7.96726 83.8582 12.9181 82.2173 18.6932C80.5765 24.4684 79.1644 29.4263 79.0799 29.7111C78.935 30.1977 77.6716 30.2288 57.9585 30.2288C46.4264 30.2288 36.9909 30.1658 36.9909 30.0886C36.9909 30.0114 35.5274 24.8647 33.7391 18.6518C31.9504 12.4389 30.5253 7.31743 30.572 7.2704C31.5129 6.32922 34.8431 6.51408 36.3581 7.59162ZM82.9809 36.6194C84.3007 37.2462 85.1733 38.7012 85.1733 40.2747C85.1733 41.8616 84.4905 43.0196 83.0905 43.807C82.0796 44.3755 81.5259 44.4263 76.353 44.4263C72.6128 44.4263 70.4561 44.5452 69.9418 44.7798C69.0946 45.1661 68.3243 46.4063 68.3243 47.3842C68.3243 48.2428 69.0813 49.6271 69.7174 49.9314C70.008 50.0705 72.3521 50.253 74.9264 50.337L79.6072 50.4899L91.8757 69.7158C98.6233 80.29 104.649 89.9399 105.266 91.16C106.698 93.9912 108.012 97.7205 108.706 100.921C109.462 104.408 109.471 111.9 108.723 115.414C107.082 123.129 103.512 129.68 97.915 135.241C93.4007 139.728 88.8884 142.498 83.1041 144.333C77.8522 145.999 77.4248 146.028 57.8306 146.028C41.2936 146.028 39.5786 145.982 37.1387 145.469C32.1556 144.424 27.5132 142.5 23.2551 139.716C20.5238 137.93 15.2932 132.706 13.4082 129.88C6.49296 119.515 4.75514 107.8 8.46962 96.5873C9.01677 94.9357 9.99283 92.5398 10.6384 91.2632C11.2843 89.9863 17.3334 80.29 24.081 69.7158L36.3495 50.4899L41.0303 50.337C43.6046 50.253 45.9487 50.0705 46.2393 49.9314C46.8666 49.6315 47.6324 48.2467 47.6324 47.4128C47.6324 46.4128 46.967 45.2906 46.1116 44.8478C45.4897 44.526 43.957 44.4263 39.6324 44.4263C34.4305 44.4263 33.8777 44.3758 32.8662 43.807C32.2605 43.4662 31.544 42.8134 31.2741 42.3561C30.6022 41.2183 30.6492 39.2413 31.3764 38.064C32.6108 36.0654 31.3158 36.1586 57.9337 36.1512C79.4133 36.145 82.087 36.195 82.9809 36.6194ZM56.5329 44.8392C53.9703 46.2605 55.0425 50.342 57.9784 50.342C59.4761 50.342 60.9343 48.8971 60.9343 47.4128C60.9343 45.1921 58.4818 43.7582 56.5329 44.8392ZM56.5329 71.4597C55.4696 72.0492 55.0445 73.0714 55.0327 75.0671L55.0224 76.8687L53.7661 77.2399C50.3895 78.2373 47.9245 80.3888 46.351 83.7122C45.4855 85.5401 45.4155 85.9205 45.4155 88.7937C45.4155 91.5998 45.4956 92.063 46.2467 93.5934C47.2913 95.7219 49.2804 97.4906 52.5364 99.1864L55.0153 100.477L55.0188 108.981L55.0224 117.485H54.2937C53.2127 117.485 50.9251 116.654 49.3277 115.681C47.4495 114.537 46.0974 114.538 44.9493 115.687C43.7962 116.841 43.7453 118.543 44.832 119.63C46.5228 121.322 51.6044 123.4 54.0499 123.4H55.0224V125.466C55.0224 127.327 55.1072 127.627 55.879 128.491C56.5879 129.285 56.9497 129.451 57.9784 129.451C59.007 129.451 59.3688 129.285 60.0777 128.491C60.8584 127.617 60.9343 127.339 60.9343 125.357V123.181L62.2885 122.802C65.1986 121.987 68.749 118.95 70.2504 115.993C72.1505 112.25 72.4215 107.379 70.9128 104.1C69.4588 100.939 66.5202 98.4809 62.3384 96.9257L60.9343 96.4036V89.7888C60.9343 85.6502 61.0431 83.1739 61.2249 83.1739C61.3848 83.1739 62.4957 83.6592 63.6937 84.2523C66.1229 85.4549 66.966 85.4473 68.2019 84.2106C69.1043 83.3076 69.172 81.5095 68.3432 80.455C67.6391 79.5594 64.9095 78.0905 62.634 77.383L60.9343 76.8545V75.1475C60.9343 73.0844 60.4983 72.0297 59.4135 71.4683C58.4093 70.9489 57.459 70.9459 56.5329 71.4597ZM55.0224 88.5083V93.8428L54.3573 93.4887C51.9922 92.229 51.1796 91.0355 51.1796 88.8224C51.1796 87.2598 51.5391 86.1616 52.4459 84.9551C52.994 84.2254 54.3783 83.1795 54.8007 83.1759C54.9225 83.1748 55.0224 85.5744 55.0224 88.5083ZM63.7248 104.237C66.1776 106.26 66.6884 109.812 64.9967 113.083C64.1197 114.778 62.0159 116.893 61.2069 116.893C61.0481 116.893 60.9343 113.937 60.9343 109.81V102.726L61.7653 103.016C62.2222 103.176 63.104 103.725 63.7248 104.237Z" fill="#5CB85C" stroke="white" stroke-width="2.16071" mask="url(#path-1-inside-1_13_140)"/>
</svg>
