<svg width="153" height="152" viewBox="0 0 153 152" fill="none" xmlns="http://www.w3.org/2000/svg">
<mask id="path-1-inside-1_13_130" fill="white">
<path fill-rule="evenodd" clip-rule="evenodd" d="M43.7194 1.15953C42.6571 1.85738 11.1182 33.1173 10.0913 34.4902C9.51489 35.2608 9.22909 35.9953 9.22909 36.7052C9.22909 37.7205 10.5213 39.0521 38.3017 66.6616L67.3739 95.5557H68.7039H70.0339L85.509 80.1859L100.984 64.8161H103.52C107.644 64.8161 111.479 63.5176 115.22 60.8545C117.095 59.5197 120.547 56.1224 121.481 54.6927L122.012 53.8798H136.09C151.209 53.8798 151.368 53.8648 152.152 52.3591C152.783 51.1455 152.783 13.4604 152.152 12.2468C151.394 10.7899 150.906 10.7261 140.534 10.7261H130.899L130.064 11.439C129.34 12.0579 129.21 12.4194 129.081 14.1731L128.932 16.1942L124.12 16.2752L119.308 16.3565L118.544 17.2586C118.087 17.798 117.78 18.5251 117.78 19.0669V19.9731L116.07 19.794C113.406 19.5153 111.382 18.682 105.828 15.577C99.0883 11.8088 89.9522 7.3518 87.1477 6.4642C83.8341 5.4155 79.7894 5.01116 76.5633 5.40634C73.8218 5.74241 72.7116 6.08379 63.2071 9.51511L57.5565 11.5552L52.352 6.44292C49.4895 3.63142 46.8552 1.18348 46.498 1.00377C45.5796 0.541194 44.5747 0.597649 43.7194 1.15953ZM48.5554 11.2383C50.3163 12.9831 51.7572 14.4964 51.7572 14.601C51.7572 14.7057 51.0544 15.1071 50.1958 15.4928C48.8433 16.1002 48.1768 16.1942 45.2144 16.1942C42.252 16.1942 41.5855 16.1002 40.233 15.4928C39.3744 15.1071 38.6716 14.7101 38.6716 14.6108C38.6716 14.3956 44.9896 8.06591 45.2046 8.06591C45.2864 8.06591 46.7942 9.49353 48.5554 11.2383ZM84.4048 11.8188C86.4316 12.3192 97.319 17.5311 102.327 20.3978C108.705 24.0491 111.211 25.0661 115.242 25.6384L117.631 25.9777L117.709 37.7782L117.787 49.5789L116.693 51.1567C114.999 53.6017 112.036 56.1153 109.205 57.5095C106.844 58.6723 106.519 58.7515 103.664 58.8564C98.1021 59.061 93.9647 57.4176 89.973 53.4184L87.5938 51.0346L81.3484 48.9438C63.3468 42.9176 62.4888 42.5969 61.0934 41.3762C59.6216 40.0887 59.0435 39.1544 58.7473 37.5863C58.3247 35.3468 59.9375 32.4088 62.0775 31.52C64.0514 30.7004 65.3097 30.9838 79.3329 35.4065C86.8072 37.7637 93.3062 39.6923 93.7752 39.6923C95.11 39.6923 96.3671 38.2629 96.3671 36.7457C96.3671 34.8071 95.6899 34.3752 89.6527 32.4643C86.7209 31.5365 81.8445 29.9895 78.816 29.0262L73.3097 27.2752L67.7284 21.7226L62.1474 16.17L63.7183 15.6225C64.5819 15.3214 67.4037 14.2978 69.9881 13.3481C72.5728 12.3981 75.517 11.4955 76.5308 11.3423C78.7581 11.006 81.8775 11.1949 84.4048 11.8188ZM146.628 32.303V47.9684H140.828H135.029V32.303V16.6375H140.828H146.628V32.303ZM35.901 19.8726C38.3427 21.3561 40.8447 22.0303 44.4834 22.1843C48.3793 22.3489 51.3022 21.7004 54.3945 19.9849L56.2881 18.9342L59.3816 21.9978C62.2908 24.8787 62.4347 25.0774 61.8001 25.3283C57.7861 26.9164 56.4252 27.8569 54.8314 30.145C54.0481 31.2696 53.5118 31.7325 52.8335 31.8708C50.6318 32.3195 47.0375 34.3664 45.1406 36.2515C41.8484 39.5235 40.1586 43.5797 40.1586 48.2096C40.1586 52.6594 41.5939 56.3544 44.5589 59.5386C51.3866 66.87 62.4026 66.8789 69.3802 59.5581C70.9403 57.9212 73.1699 54.1071 73.1699 53.0753C73.1699 52.5007 73.5325 52.5787 78.5847 54.2413L83.2758 55.7854L83.1001 58.601C82.8699 62.2898 83.448 65.0484 85.1569 68.4147L86.4586 70.9785L83.1599 74.2369L79.8614 77.4953L77.1848 76.1676C71.4364 73.3159 65.4206 73.3904 59.8051 76.3825L57.5931 77.5615L42.4899 62.5431L27.3868 47.525L28.2745 46.1157C28.7632 45.3404 29.5251 43.6778 29.9679 42.421C30.6677 40.4348 30.7742 39.6713 30.7819 36.5888C30.7917 32.5477 30.1651 30.0666 28.4209 27.241L27.4406 25.6525L30.7465 22.3273C32.5645 20.4986 34.1458 19.0021 34.2603 19.0021C34.3748 19.0021 35.1132 19.3938 35.901 19.8726ZM129.081 35.1109V47.9684H126.404H123.728V35.1109V22.2535H126.404H129.081V35.1109ZM24.4063 32.8471C25.3425 35.8599 25.0275 39.7106 23.6241 42.408L23.1495 43.3205L19.7579 39.9592L16.3664 36.5982L19.7124 33.2633C23.515 29.4728 23.3618 29.4864 24.4063 32.8471ZM102.165 38.0412C101.227 38.9732 100.969 40.0804 101.43 41.1876C102.246 43.1449 104.676 43.5989 106.204 42.0797C107.343 40.9473 107.381 39.5093 106.303 38.2372C105.656 37.4722 105.323 37.3277 104.208 37.3277C103.204 37.3277 102.709 37.5003 102.165 38.0412ZM53.0494 39.3228C53.4946 42.087 56.0948 45.5249 59.0438 47.2481C59.8607 47.7254 62.1355 48.6662 64.0987 49.3386C68.1216 50.7163 68.0279 50.5753 66.6961 53.2417C65.6728 55.2906 63.2294 57.4983 61.05 58.343C58.6905 59.2575 55.2382 59.2596 52.8867 58.348C50.6634 57.4858 48.5355 55.5472 47.2733 53.2334C46.2981 51.4458 46.2553 51.2371 46.2553 48.2639C46.2553 44.5704 46.7502 43.2232 48.9762 40.858C50.1848 39.5738 52.0168 38.2747 52.6857 38.2274C52.7874 38.2203 52.9512 38.7134 53.0494 39.3228ZM90.6743 61.5671C91.474 62.056 92.5467 62.601 93.0579 62.7784C93.5694 62.9554 93.9879 63.1919 93.9879 63.3033C93.9879 63.4148 93.278 64.2031 92.4105 65.0546L90.8331 66.6028L90.2894 65.4876C89.4484 63.7621 88.6704 60.678 89.0763 60.678C89.1557 60.678 89.8748 61.0782 90.6743 61.5671ZM73.1221 80.7874C74.0288 81.104 74.9088 81.5003 75.0775 81.6679C75.2877 81.8769 74.3378 83.0122 72.0481 85.2878L68.7125 88.603L65.4393 85.3602C63.6392 83.5764 62.1662 82.017 62.1662 81.8943C62.1662 81.5683 64.1522 80.7484 66.0323 80.2982C68.0499 79.815 70.9017 80.0118 73.1221 80.7874ZM44.9854 92.8793C40.4771 94.0962 35.8193 97.1799 32.5651 101.101L30.9125 103.093L16.4773 103.241L2.04214 103.388L1.16838 104.361L0.294922 105.333L0.37522 125.15L0.455815 144.968L1.29032 145.681L2.12482 146.394H12.179H22.2335L23.0177 145.615C23.7005 144.937 23.8017 144.593 23.8017 142.955V141.074H28.2775C34.0028 141.074 35.1028 140.596 35.1028 138.11V137.176L36.6642 137.387C39.5231 137.773 41.7527 138.675 46.5527 141.387C52.6705 144.844 63.2368 150.008 65.7689 150.777C70.5906 152.243 75.8087 152.331 80.1737 151.019C81.4742 150.629 89.2964 147.891 97.5567 144.935C105.817 141.979 116.323 138.228 120.903 136.6C130.115 133.325 131.454 132.704 133.717 130.652C138.242 126.548 139.204 121.183 136.349 115.969C134.124 111.907 129.242 109.639 124.248 110.347C123.226 110.492 117.313 112.012 111.11 113.724C104.906 115.436 99.7946 116.837 99.7518 116.837C99.7086 116.837 99.2423 116.033 98.7156 115.051C97.6283 113.024 94.9743 110.423 93.0457 109.495C91.6801 108.838 84.6626 106.392 74.7411 103.115L68.7283 101.129L66.5174 99.0074C62.0225 94.6938 57.1624 92.6896 50.5676 92.4303C47.7854 92.3207 46.7442 92.4046 44.9854 92.8793ZM53.6903 98.659C54.8353 98.8972 56.8629 99.6264 58.1959 100.279C60.1379 101.23 61.0459 101.92 62.7616 103.746L64.9031 106.025L77.4382 110.253C85.2881 112.902 90.4146 114.787 91.1543 115.298C92.7819 116.423 93.948 118.183 94.1746 119.858C94.442 121.831 93.2563 124.23 91.5123 125.246C88.985 126.718 89.247 126.768 73.674 121.856C63.6591 118.698 59.2344 117.428 58.7041 117.56C57.414 117.882 56.5156 119.029 56.5156 120.354C56.5156 122.667 56.4067 122.616 71.9803 127.543C85.3139 131.761 86.2403 132.011 88.486 132.012C93.5766 132.012 97.8984 128.965 99.4826 124.257L99.9406 122.896L110.124 120.108C126.445 115.639 125.433 115.869 127.242 116.222C129.377 116.638 130.501 117.507 131.385 119.426C132.698 122.276 131.796 124.922 128.784 127.055C127.814 127.742 121.096 130.263 104.397 136.206C91.7202 140.718 80.4116 144.749 79.2666 145.165C77.4894 145.81 76.6843 145.921 73.7647 145.925C71.4081 145.928 69.7436 145.767 68.4115 145.406C66.0912 144.779 55.1345 139.449 48.9319 135.93C44.026 133.147 41.2706 132.092 37.5564 131.571L35.1028 131.228L35.1058 119.377L35.1085 107.526L36.627 105.517C38.2594 103.357 40.8581 101.1 43.1249 99.8744C46.1108 98.259 49.7524 97.8402 53.6903 98.659ZM17.8537 124.818V140.483H12.0544H6.2551V124.818V109.152H12.0544H17.8537V124.818ZM29.1548 122.169V135.186L26.5526 135.1L23.9504 135.015L23.8727 122.453C23.8299 115.544 23.8594 109.725 23.9379 109.522C24.0363 109.266 24.8622 109.152 26.6177 109.152H29.1548V122.169ZM46.6785 115.041C44.6592 117.048 46.4278 120.482 49.2129 119.963C50.6342 119.698 51.5951 118.538 51.5951 117.086C51.5951 116.11 51.4173 115.732 50.6303 115.033C49.3102 113.861 47.863 113.864 46.6785 115.041Z"/>
</mask>
<path fill-rule="evenodd" clip-rule="evenodd" d="M43.7194 1.15953C42.6571 1.85738 11.1182 33.1173 10.0913 34.4902C9.51489 35.2608 9.22909 35.9953 9.22909 36.7052C9.22909 37.7205 10.5213 39.0521 38.3017 66.6616L67.3739 95.5557H68.7039H70.0339L85.509 80.1859L100.984 64.8161H103.52C107.644 64.8161 111.479 63.5176 115.22 60.8545C117.095 59.5197 120.547 56.1224 121.481 54.6927L122.012 53.8798H136.09C151.209 53.8798 151.368 53.8648 152.152 52.3591C152.783 51.1455 152.783 13.4604 152.152 12.2468C151.394 10.7899 150.906 10.7261 140.534 10.7261H130.899L130.064 11.439C129.34 12.0579 129.21 12.4194 129.081 14.1731L128.932 16.1942L124.12 16.2752L119.308 16.3565L118.544 17.2586C118.087 17.798 117.78 18.5251 117.78 19.0669V19.9731L116.07 19.794C113.406 19.5153 111.382 18.682 105.828 15.577C99.0883 11.8088 89.9522 7.3518 87.1477 6.4642C83.8341 5.4155 79.7894 5.01116 76.5633 5.40634C73.8218 5.74241 72.7116 6.08379 63.2071 9.51511L57.5565 11.5552L52.352 6.44292C49.4895 3.63142 46.8552 1.18348 46.498 1.00377C45.5796 0.541194 44.5747 0.597649 43.7194 1.15953ZM48.5554 11.2383C50.3163 12.9831 51.7572 14.4964 51.7572 14.601C51.7572 14.7057 51.0544 15.1071 50.1958 15.4928C48.8433 16.1002 48.1768 16.1942 45.2144 16.1942C42.252 16.1942 41.5855 16.1002 40.233 15.4928C39.3744 15.1071 38.6716 14.7101 38.6716 14.6108C38.6716 14.3956 44.9896 8.06591 45.2046 8.06591C45.2864 8.06591 46.7942 9.49353 48.5554 11.2383ZM84.4048 11.8188C86.4316 12.3192 97.319 17.5311 102.327 20.3978C108.705 24.0491 111.211 25.0661 115.242 25.6384L117.631 25.9777L117.709 37.7782L117.787 49.5789L116.693 51.1567C114.999 53.6017 112.036 56.1153 109.205 57.5095C106.844 58.6723 106.519 58.7515 103.664 58.8564C98.1021 59.061 93.9647 57.4176 89.973 53.4184L87.5938 51.0346L81.3484 48.9438C63.3468 42.9176 62.4888 42.5969 61.0934 41.3762C59.6216 40.0887 59.0435 39.1544 58.7473 37.5863C58.3247 35.3468 59.9375 32.4088 62.0775 31.52C64.0514 30.7004 65.3097 30.9838 79.3329 35.4065C86.8072 37.7637 93.3062 39.6923 93.7752 39.6923C95.11 39.6923 96.3671 38.2629 96.3671 36.7457C96.3671 34.8071 95.6899 34.3752 89.6527 32.4643C86.7209 31.5365 81.8445 29.9895 78.816 29.0262L73.3097 27.2752L67.7284 21.7226L62.1474 16.17L63.7183 15.6225C64.5819 15.3214 67.4037 14.2978 69.9881 13.3481C72.5728 12.3981 75.517 11.4955 76.5308 11.3423C78.7581 11.006 81.8775 11.1949 84.4048 11.8188ZM146.628 32.303V47.9684H140.828H135.029V32.303V16.6375H140.828H146.628V32.303ZM35.901 19.8726C38.3427 21.3561 40.8447 22.0303 44.4834 22.1843C48.3793 22.3489 51.3022 21.7004 54.3945 19.9849L56.2881 18.9342L59.3816 21.9978C62.2908 24.8787 62.4347 25.0774 61.8001 25.3283C57.7861 26.9164 56.4252 27.8569 54.8314 30.145C54.0481 31.2696 53.5118 31.7325 52.8335 31.8708C50.6318 32.3195 47.0375 34.3664 45.1406 36.2515C41.8484 39.5235 40.1586 43.5797 40.1586 48.2096C40.1586 52.6594 41.5939 56.3544 44.5589 59.5386C51.3866 66.87 62.4026 66.8789 69.3802 59.5581C70.9403 57.9212 73.1699 54.1071 73.1699 53.0753C73.1699 52.5007 73.5325 52.5787 78.5847 54.2413L83.2758 55.7854L83.1001 58.601C82.8699 62.2898 83.448 65.0484 85.1569 68.4147L86.4586 70.9785L83.1599 74.2369L79.8614 77.4953L77.1848 76.1676C71.4364 73.3159 65.4206 73.3904 59.8051 76.3825L57.5931 77.5615L42.4899 62.5431L27.3868 47.525L28.2745 46.1157C28.7632 45.3404 29.5251 43.6778 29.9679 42.421C30.6677 40.4348 30.7742 39.6713 30.7819 36.5888C30.7917 32.5477 30.1651 30.0666 28.4209 27.241L27.4406 25.6525L30.7465 22.3273C32.5645 20.4986 34.1458 19.0021 34.2603 19.0021C34.3748 19.0021 35.1132 19.3938 35.901 19.8726ZM129.081 35.1109V47.9684H126.404H123.728V35.1109V22.2535H126.404H129.081V35.1109ZM24.4063 32.8471C25.3425 35.8599 25.0275 39.7106 23.6241 42.408L23.1495 43.3205L19.7579 39.9592L16.3664 36.5982L19.7124 33.2633C23.515 29.4728 23.3618 29.4864 24.4063 32.8471ZM102.165 38.0412C101.227 38.9732 100.969 40.0804 101.43 41.1876C102.246 43.1449 104.676 43.5989 106.204 42.0797C107.343 40.9473 107.381 39.5093 106.303 38.2372C105.656 37.4722 105.323 37.3277 104.208 37.3277C103.204 37.3277 102.709 37.5003 102.165 38.0412ZM53.0494 39.3228C53.4946 42.087 56.0948 45.5249 59.0438 47.2481C59.8607 47.7254 62.1355 48.6662 64.0987 49.3386C68.1216 50.7163 68.0279 50.5753 66.6961 53.2417C65.6728 55.2906 63.2294 57.4983 61.05 58.343C58.6905 59.2575 55.2382 59.2596 52.8867 58.348C50.6634 57.4858 48.5355 55.5472 47.2733 53.2334C46.2981 51.4458 46.2553 51.2371 46.2553 48.2639C46.2553 44.5704 46.7502 43.2232 48.9762 40.858C50.1848 39.5738 52.0168 38.2747 52.6857 38.2274C52.7874 38.2203 52.9512 38.7134 53.0494 39.3228ZM90.6743 61.5671C91.474 62.056 92.5467 62.601 93.0579 62.7784C93.5694 62.9554 93.9879 63.1919 93.9879 63.3033C93.9879 63.4148 93.278 64.2031 92.4105 65.0546L90.8331 66.6028L90.2894 65.4876C89.4484 63.7621 88.6704 60.678 89.0763 60.678C89.1557 60.678 89.8748 61.0782 90.6743 61.5671ZM73.1221 80.7874C74.0288 81.104 74.9088 81.5003 75.0775 81.6679C75.2877 81.8769 74.3378 83.0122 72.0481 85.2878L68.7125 88.603L65.4393 85.3602C63.6392 83.5764 62.1662 82.017 62.1662 81.8943C62.1662 81.5683 64.1522 80.7484 66.0323 80.2982C68.0499 79.815 70.9017 80.0118 73.1221 80.7874ZM44.9854 92.8793C40.4771 94.0962 35.8193 97.1799 32.5651 101.101L30.9125 103.093L16.4773 103.241L2.04214 103.388L1.16838 104.361L0.294922 105.333L0.37522 125.15L0.455815 144.968L1.29032 145.681L2.12482 146.394H12.179H22.2335L23.0177 145.615C23.7005 144.937 23.8017 144.593 23.8017 142.955V141.074H28.2775C34.0028 141.074 35.1028 140.596 35.1028 138.11V137.176L36.6642 137.387C39.5231 137.773 41.7527 138.675 46.5527 141.387C52.6705 144.844 63.2368 150.008 65.7689 150.777C70.5906 152.243 75.8087 152.331 80.1737 151.019C81.4742 150.629 89.2964 147.891 97.5567 144.935C105.817 141.979 116.323 138.228 120.903 136.6C130.115 133.325 131.454 132.704 133.717 130.652C138.242 126.548 139.204 121.183 136.349 115.969C134.124 111.907 129.242 109.639 124.248 110.347C123.226 110.492 117.313 112.012 111.11 113.724C104.906 115.436 99.7946 116.837 99.7518 116.837C99.7086 116.837 99.2423 116.033 98.7156 115.051C97.6283 113.024 94.9743 110.423 93.0457 109.495C91.6801 108.838 84.6626 106.392 74.7411 103.115L68.7283 101.129L66.5174 99.0074C62.0225 94.6938 57.1624 92.6896 50.5676 92.4303C47.7854 92.3207 46.7442 92.4046 44.9854 92.8793ZM53.6903 98.659C54.8353 98.8972 56.8629 99.6264 58.1959 100.279C60.1379 101.23 61.0459 101.92 62.7616 103.746L64.9031 106.025L77.4382 110.253C85.2881 112.902 90.4146 114.787 91.1543 115.298C92.7819 116.423 93.948 118.183 94.1746 119.858C94.442 121.831 93.2563 124.23 91.5123 125.246C88.985 126.718 89.247 126.768 73.674 121.856C63.6591 118.698 59.2344 117.428 58.7041 117.56C57.414 117.882 56.5156 119.029 56.5156 120.354C56.5156 122.667 56.4067 122.616 71.9803 127.543C85.3139 131.761 86.2403 132.011 88.486 132.012C93.5766 132.012 97.8984 128.965 99.4826 124.257L99.9406 122.896L110.124 120.108C126.445 115.639 125.433 115.869 127.242 116.222C129.377 116.638 130.501 117.507 131.385 119.426C132.698 122.276 131.796 124.922 128.784 127.055C127.814 127.742 121.096 130.263 104.397 136.206C91.7202 140.718 80.4116 144.749 79.2666 145.165C77.4894 145.81 76.6843 145.921 73.7647 145.925C71.4081 145.928 69.7436 145.767 68.4115 145.406C66.0912 144.779 55.1345 139.449 48.9319 135.93C44.026 133.147 41.2706 132.092 37.5564 131.571L35.1028 131.228L35.1058 119.377L35.1085 107.526L36.627 105.517C38.2594 103.357 40.8581 101.1 43.1249 99.8744C46.1108 98.259 49.7524 97.8402 53.6903 98.659ZM17.8537 124.818V140.483H12.0544H6.2551V124.818V109.152H12.0544H17.8537V124.818ZM29.1548 122.169V135.186L26.5526 135.1L23.9504 135.015L23.8727 122.453C23.8299 115.544 23.8594 109.725 23.9379 109.522C24.0363 109.266 24.8622 109.152 26.6177 109.152H29.1548V122.169ZM46.6785 115.041C44.6592 117.048 46.4278 120.482 49.2129 119.963C50.6342 119.698 51.5951 118.538 51.5951 117.086C51.5951 116.11 51.4173 115.732 50.6303 115.033C49.3102 113.861 47.863 113.864 46.6785 115.041Z" fill="#5CB85C" stroke="white" stroke-width="1.72857" mask="url(#path-1-inside-1_13_130)"/>
</svg>
