<svg width="226" height="156" viewBox="0 0 226 156" fill="none" xmlns="http://www.w3.org/2000/svg">
<mask id="path-1-inside-1_13_120" fill="white">
<path fill-rule="evenodd" clip-rule="evenodd" d="M45.8499 1.32711C29.4647 5.05086 18.1891 19.0466 18.1891 35.6605C18.1891 46.5914 22.9224 56.3968 31.5011 63.2369L33.6257 64.9311H18.2023H2.77934L1.70212 66.0117C0.276375 67.4409 0.276375 69.4639 1.70212 70.8931L2.77934 71.9737H21.2359H39.6921V75.4949V79.0162H32.4273C23.3447 79.0162 22.1336 79.4775 22.1336 82.9367C22.1336 83.6656 22.5827 84.568 23.2653 85.2119C24.36 86.2441 24.6462 86.2833 32.0445 86.4171L39.6921 86.5557V90.0484V93.5415H21.2359H2.77934L1.70212 94.6221C0.276375 96.0513 0.276375 98.0743 1.70212 99.5035L2.77934 100.584H21.2359H39.6921V108.444V116.305L37.334 117.875C34.4325 119.807 32.1872 122.497 30.6289 125.911C29.6627 128.027 29.4081 129.324 29.2523 132.923C29.0785 136.951 29.1452 137.443 30.0152 138.543L30.9686 139.748L47.6826 139.863L64.3969 139.978L64.9469 141.847C66.1019 145.77 70.4607 150.965 74.1981 152.874C80.3967 156.04 87.899 155.855 93.7938 152.391C97.3902 150.278 101.267 145.081 102.642 140.529C102.861 139.804 104.885 139.758 137.087 139.758H171.298L171.992 141.801C173.517 146.287 177.439 150.895 181.509 152.982C189.499 157.077 199.353 155.267 205.249 148.621C206.803 146.869 208.841 143.186 209.725 140.529C209.955 139.839 210.696 139.758 216.768 139.758H223.554L224.463 138.598C225.355 137.462 225.373 137.021 225.368 116.48L225.363 95.5222L219.118 85.8387C210.036 71.754 205.957 67.9805 197.457 65.8004C194.378 65.0108 192.562 64.9311 177.676 64.9311H161.285V55.9677C161.285 51.0383 161.086 45.9378 160.844 44.6336C159.767 38.8503 155.766 33.5908 150.443 30.9626L147.477 29.4982L117.443 29.2781L87.4091 29.0581L86.6462 26.263C84.8653 19.7386 80.4103 12.8989 75.1274 8.57918C71.9712 5.99853 65.6734 2.74794 61.8597 1.73161C58.1263 0.736412 49.4173 0.516333 45.8499 1.32711ZM61.2614 9.04267C70.0411 11.9825 76.6637 18.5875 79.47 27.2028C81.1565 32.3804 81.1565 38.9405 79.47 44.1181C75.0448 57.7037 61.1697 65.8449 47.374 62.9508C37.9582 60.9754 29.909 53.7867 26.6734 44.4637C25.5997 41.3698 25.4517 40.3015 25.4517 35.6605C25.4517 31.0427 25.6019 29.9481 26.647 26.955C29.8888 17.6689 37.8279 10.4723 47.1545 8.36439C51.0156 7.49199 57.5706 7.80714 61.2614 9.04267ZM51.7438 17.5941C50.6802 18.6602 50.6662 18.7773 50.6662 26.5131V34.3523L46.7155 39.7936C42.4198 45.7098 41.8861 47.3238 43.6428 49.0853C44.7788 50.2245 47.1698 50.408 48.3406 49.4463C48.9046 48.9828 56.2335 38.9762 57.1255 37.4519C57.4947 36.8207 57.6632 33.7959 57.6742 27.6077C57.6896 18.7002 57.6865 18.6712 56.6119 17.5941C55.9328 16.9127 55.033 16.5135 54.1779 16.5135C53.3228 16.5135 52.4229 16.9127 51.7438 17.5941ZM147.415 37.3934C149.683 38.5215 151.976 40.8706 152.986 43.0987C153.761 44.8105 153.803 46.719 153.813 80.0066L153.822 115.109H100.488H47.1545V107.847V100.584H51.3444C55.2081 100.584 55.6186 100.5 56.6119 99.5035C58.0377 98.0743 58.0377 96.0513 56.6119 94.6221C55.6186 93.6256 55.2081 93.5415 51.3444 93.5415H47.1545V90.0202V86.4989L59.5552 86.4981C70.4919 86.4976 72.1341 86.4065 73.4659 85.7278C75.3275 84.7797 75.9917 83.0745 75.1699 81.3557C74.1081 79.1351 73.4115 79.0299 59.7747 79.0228L47.1545 79.0162V75.4949V71.9737H70.7992C94.0554 71.9737 94.4632 71.9587 95.6006 71.0612C97.1413 69.8464 97.2151 67.2767 95.7494 65.8959C94.7797 64.9826 94.3232 64.9421 83.67 64.829L72.5985 64.711L75.0532 62.7888C81.8303 57.4827 86.7818 48.2592 87.7905 39.0625L88.0934 36.3022L116.898 36.4215C144.374 36.5355 145.781 36.58 147.415 37.3934ZM194.734 72.4644C201.581 73.9082 204.573 76.6499 212.376 88.6262L218.35 97.7957V115.255V132.716H214.228H210.107L209.839 131.285C209.07 127.183 205.302 121.704 201.46 119.099C193.832 113.926 183.336 114.95 176.8 121.503C174.425 123.884 172.041 128.059 171.464 130.847L171.124 132.496L166.204 132.62L161.285 132.745V102.359V71.9737H176.846C186.603 71.9737 193.275 72.1568 194.734 72.4644ZM180.351 76.5082L179.063 77.6183L178.933 90.7518C178.862 97.9752 178.916 104.336 179.054 104.887C179.192 105.438 179.694 106.279 180.171 106.757C180.997 107.586 181.681 107.627 194.756 107.625C207.586 107.624 208.564 107.568 209.878 106.764C211.857 105.554 212.79 103.546 212.528 101.061C212.367 99.5272 211.171 97.039 207.541 90.6805C202.168 81.2685 200.385 79.165 196.051 77.1253C193.316 75.8383 192.706 75.7287 187.374 75.5693C181.76 75.4012 181.611 75.421 180.351 76.5082ZM194.022 84.0759C195.008 84.6542 196.028 85.3867 196.289 85.7031C196.817 86.3405 204.742 100.128 204.742 100.408C204.742 100.505 200.594 100.584 195.524 100.584H186.306V91.5V82.416L189.269 82.7202C191.155 82.9134 192.882 83.4059 194.022 84.0759ZM68.6636 122.376C68.6636 122.499 68.0776 123.411 67.3608 124.403C65.9724 126.326 64.274 130.423 64.274 131.852C64.274 132.692 63.8917 132.716 50.2272 132.716C42.5015 132.716 36.1804 132.554 36.1804 132.356C36.1804 132.157 36.471 131.018 36.8261 129.825C37.6883 126.927 39.8005 124.467 42.5142 123.2C44.6814 122.188 45.0558 122.16 56.7019 122.156C63.2811 122.154 68.6636 122.253 68.6636 122.376ZM153.822 127.434V132.716H128.411H103.001L102.697 131.065C102.268 128.723 100.887 125.727 99.3502 123.803L98.0329 122.152H125.928H153.822V127.434ZM89.2593 124.404C93.5879 126.573 95.9478 130.407 96.0009 135.357C96.0422 139.203 94.7077 142.231 91.8264 144.829C87.0781 149.109 80.2566 149.176 75.511 144.987C72.4826 142.314 71.1315 139.406 71.1385 135.577C71.1482 130.391 73.4273 126.654 77.9679 124.379C81.7772 122.471 85.4158 122.479 89.2593 124.404ZM195.743 124.07C198.453 125.341 201.277 128.355 202.317 131.087C203.273 133.597 203.081 138.78 201.951 140.963C200.732 143.317 198.587 145.468 196.222 146.708C194.383 147.672 193.405 147.879 190.695 147.881C186.776 147.883 184.318 146.908 181.746 144.33C179.165 141.74 178.196 139.285 178.207 135.357C178.215 132.545 178.408 131.705 179.505 129.694C180.958 127.031 183.595 124.655 186.133 123.722C188.886 122.71 193.175 122.866 195.743 124.07ZM81.0731 130.287C78.2712 131.508 76.9969 135.699 78.6 138.42C80.8163 142.183 86.8011 142.033 88.6294 138.171C90.0771 135.111 88.8682 131.467 86.007 130.268C84.1366 129.485 82.9031 129.489 81.0731 130.287ZM187.756 130.496C185.855 131.658 184.939 133.186 184.911 135.244C184.863 138.732 187.292 141.199 190.775 141.199C192.753 141.199 194.385 140.208 195.543 138.304C197.183 135.606 196.147 131.969 193.302 130.439C191.374 129.402 189.513 129.421 187.756 130.496Z"/>
</mask>
<path fill-rule="evenodd" clip-rule="evenodd" d="M45.8499 1.32711C29.4647 5.05086 18.1891 19.0466 18.1891 35.6605C18.1891 46.5914 22.9224 56.3968 31.5011 63.2369L33.6257 64.9311H18.2023H2.77934L1.70212 66.0117C0.276375 67.4409 0.276375 69.4639 1.70212 70.8931L2.77934 71.9737H21.2359H39.6921V75.4949V79.0162H32.4273C23.3447 79.0162 22.1336 79.4775 22.1336 82.9367C22.1336 83.6656 22.5827 84.568 23.2653 85.2119C24.36 86.2441 24.6462 86.2833 32.0445 86.4171L39.6921 86.5557V90.0484V93.5415H21.2359H2.77934L1.70212 94.6221C0.276375 96.0513 0.276375 98.0743 1.70212 99.5035L2.77934 100.584H21.2359H39.6921V108.444V116.305L37.334 117.875C34.4325 119.807 32.1872 122.497 30.6289 125.911C29.6627 128.027 29.4081 129.324 29.2523 132.923C29.0785 136.951 29.1452 137.443 30.0152 138.543L30.9686 139.748L47.6826 139.863L64.3969 139.978L64.9469 141.847C66.1019 145.77 70.4607 150.965 74.1981 152.874C80.3967 156.04 87.899 155.855 93.7938 152.391C97.3902 150.278 101.267 145.081 102.642 140.529C102.861 139.804 104.885 139.758 137.087 139.758H171.298L171.992 141.801C173.517 146.287 177.439 150.895 181.509 152.982C189.499 157.077 199.353 155.267 205.249 148.621C206.803 146.869 208.841 143.186 209.725 140.529C209.955 139.839 210.696 139.758 216.768 139.758H223.554L224.463 138.598C225.355 137.462 225.373 137.021 225.368 116.48L225.363 95.5222L219.118 85.8387C210.036 71.754 205.957 67.9805 197.457 65.8004C194.378 65.0108 192.562 64.9311 177.676 64.9311H161.285V55.9677C161.285 51.0383 161.086 45.9378 160.844 44.6336C159.767 38.8503 155.766 33.5908 150.443 30.9626L147.477 29.4982L117.443 29.2781L87.4091 29.0581L86.6462 26.263C84.8653 19.7386 80.4103 12.8989 75.1274 8.57918C71.9712 5.99853 65.6734 2.74794 61.8597 1.73161C58.1263 0.736412 49.4173 0.516333 45.8499 1.32711ZM61.2614 9.04267C70.0411 11.9825 76.6637 18.5875 79.47 27.2028C81.1565 32.3804 81.1565 38.9405 79.47 44.1181C75.0448 57.7037 61.1697 65.8449 47.374 62.9508C37.9582 60.9754 29.909 53.7867 26.6734 44.4637C25.5997 41.3698 25.4517 40.3015 25.4517 35.6605C25.4517 31.0427 25.6019 29.9481 26.647 26.955C29.8888 17.6689 37.8279 10.4723 47.1545 8.36439C51.0156 7.49199 57.5706 7.80714 61.2614 9.04267ZM51.7438 17.5941C50.6802 18.6602 50.6662 18.7773 50.6662 26.5131V34.3523L46.7155 39.7936C42.4198 45.7098 41.8861 47.3238 43.6428 49.0853C44.7788 50.2245 47.1698 50.408 48.3406 49.4463C48.9046 48.9828 56.2335 38.9762 57.1255 37.4519C57.4947 36.8207 57.6632 33.7959 57.6742 27.6077C57.6896 18.7002 57.6865 18.6712 56.6119 17.5941C55.9328 16.9127 55.033 16.5135 54.1779 16.5135C53.3228 16.5135 52.4229 16.9127 51.7438 17.5941ZM147.415 37.3934C149.683 38.5215 151.976 40.8706 152.986 43.0987C153.761 44.8105 153.803 46.719 153.813 80.0066L153.822 115.109H100.488H47.1545V107.847V100.584H51.3444C55.2081 100.584 55.6186 100.5 56.6119 99.5035C58.0377 98.0743 58.0377 96.0513 56.6119 94.6221C55.6186 93.6256 55.2081 93.5415 51.3444 93.5415H47.1545V90.0202V86.4989L59.5552 86.4981C70.4919 86.4976 72.1341 86.4065 73.4659 85.7278C75.3275 84.7797 75.9917 83.0745 75.1699 81.3557C74.1081 79.1351 73.4115 79.0299 59.7747 79.0228L47.1545 79.0162V75.4949V71.9737H70.7992C94.0554 71.9737 94.4632 71.9587 95.6006 71.0612C97.1413 69.8464 97.2151 67.2767 95.7494 65.8959C94.7797 64.9826 94.3232 64.9421 83.67 64.829L72.5985 64.711L75.0532 62.7888C81.8303 57.4827 86.7818 48.2592 87.7905 39.0625L88.0934 36.3022L116.898 36.4215C144.374 36.5355 145.781 36.58 147.415 37.3934ZM194.734 72.4644C201.581 73.9082 204.573 76.6499 212.376 88.6262L218.35 97.7957V115.255V132.716H214.228H210.107L209.839 131.285C209.07 127.183 205.302 121.704 201.46 119.099C193.832 113.926 183.336 114.95 176.8 121.503C174.425 123.884 172.041 128.059 171.464 130.847L171.124 132.496L166.204 132.62L161.285 132.745V102.359V71.9737H176.846C186.603 71.9737 193.275 72.1568 194.734 72.4644ZM180.351 76.5082L179.063 77.6183L178.933 90.7518C178.862 97.9752 178.916 104.336 179.054 104.887C179.192 105.438 179.694 106.279 180.171 106.757C180.997 107.586 181.681 107.627 194.756 107.625C207.586 107.624 208.564 107.568 209.878 106.764C211.857 105.554 212.79 103.546 212.528 101.061C212.367 99.5272 211.171 97.039 207.541 90.6805C202.168 81.2685 200.385 79.165 196.051 77.1253C193.316 75.8383 192.706 75.7287 187.374 75.5693C181.76 75.4012 181.611 75.421 180.351 76.5082ZM194.022 84.0759C195.008 84.6542 196.028 85.3867 196.289 85.7031C196.817 86.3405 204.742 100.128 204.742 100.408C204.742 100.505 200.594 100.584 195.524 100.584H186.306V91.5V82.416L189.269 82.7202C191.155 82.9134 192.882 83.4059 194.022 84.0759ZM68.6636 122.376C68.6636 122.499 68.0776 123.411 67.3608 124.403C65.9724 126.326 64.274 130.423 64.274 131.852C64.274 132.692 63.8917 132.716 50.2272 132.716C42.5015 132.716 36.1804 132.554 36.1804 132.356C36.1804 132.157 36.471 131.018 36.8261 129.825C37.6883 126.927 39.8005 124.467 42.5142 123.2C44.6814 122.188 45.0558 122.16 56.7019 122.156C63.2811 122.154 68.6636 122.253 68.6636 122.376ZM153.822 127.434V132.716H128.411H103.001L102.697 131.065C102.268 128.723 100.887 125.727 99.3502 123.803L98.0329 122.152H125.928H153.822V127.434ZM89.2593 124.404C93.5879 126.573 95.9478 130.407 96.0009 135.357C96.0422 139.203 94.7077 142.231 91.8264 144.829C87.0781 149.109 80.2566 149.176 75.511 144.987C72.4826 142.314 71.1315 139.406 71.1385 135.577C71.1482 130.391 73.4273 126.654 77.9679 124.379C81.7772 122.471 85.4158 122.479 89.2593 124.404ZM195.743 124.07C198.453 125.341 201.277 128.355 202.317 131.087C203.273 133.597 203.081 138.78 201.951 140.963C200.732 143.317 198.587 145.468 196.222 146.708C194.383 147.672 193.405 147.879 190.695 147.881C186.776 147.883 184.318 146.908 181.746 144.33C179.165 141.74 178.196 139.285 178.207 135.357C178.215 132.545 178.408 131.705 179.505 129.694C180.958 127.031 183.595 124.655 186.133 123.722C188.886 122.71 193.175 122.866 195.743 124.07ZM81.0731 130.287C78.2712 131.508 76.9969 135.699 78.6 138.42C80.8163 142.183 86.8011 142.033 88.6294 138.171C90.0771 135.111 88.8682 131.467 86.007 130.268C84.1366 129.485 82.9031 129.489 81.0731 130.287ZM187.756 130.496C185.855 131.658 184.939 133.186 184.911 135.244C184.863 138.732 187.292 141.199 190.775 141.199C192.753 141.199 194.385 140.208 195.543 138.304C197.183 135.606 196.147 131.969 193.302 130.439C191.374 129.402 189.513 129.421 187.756 130.496Z" fill="#5CB85C" stroke="white" stroke-width="3.025" mask="url(#path-1-inside-1_13_120)"/>
</svg>
